<?xml version="1.0" encoding="UTF-8" standalone="no"?>
<!-- Created with Inkscape (http://www.inkscape.org/) -->

<svg
   width="210mm"
   height="297mm"
   viewBox="0 0 210 297"
   version="1.1"
   id="svg1"
   xml:space="preserve"
   inkscape:version="1.4 (86a8ad7, 2024-10-11)"
   sodipodi:docname="thetagradient.svg"
   inkscape:export-filename="Zeichnung.png"
   inkscape:export-xdpi="96"
   inkscape:export-ydpi="96"
   xmlns:inkscape="http://www.inkscape.org/namespaces/inkscape"
   xmlns:sodipodi="http://sodipodi.sourceforge.net/DTD/sodipodi-0.dtd"
   xmlns:xlink="http://www.w3.org/1999/xlink"
   xmlns="http://www.w3.org/2000/svg"
   xmlns:svg="http://www.w3.org/2000/svg"><sodipodi:namedview
     id="namedview1"
     pagecolor="#505050"
     bordercolor="#eeeeee"
     borderopacity="1"
     inkscape:showpageshadow="0"
     inkscape:pageopacity="0"
     inkscape:pagecheckerboard="0"
     inkscape:deskcolor="#505050"
     inkscape:document-units="mm"
     inkscape:zoom="1"
     inkscape:cx="33"
     inkscape:cy="591.5"
     inkscape:window-width="1920"
     inkscape:window-height="1017"
     inkscape:window-x="-8"
     inkscape:window-y="-8"
     inkscape:window-maximized="1"
     inkscape:current-layer="layer1" /><defs
     id="defs1"><linearGradient
       id="linearGradient3"
       inkscape:collect="always"><stop
         style="stop-color:#557c79;stop-opacity:1;"
         offset="0.06147541"
         id="stop3" /><stop
         style="stop-color:#76a09f;stop-opacity:1;"
         offset="0.94877052"
         id="stop4" /></linearGradient><linearGradient
       inkscape:collect="always"
       xlink:href="#linearGradient3"
       id="linearGradient4"
       x1="64.200171"
       y1="192.63235"
       x2="80.051401"
       y2="192.63235"
       gradientUnits="userSpaceOnUse"
       gradientTransform="matrix(1.0366071,0,0,0.99945769,-2.3504628,0.10445862)" /></defs><g
     inkscape:label="Ebene 1"
     inkscape:groupmode="layer"
     id="layer1"><rect
       style="fill:none;stroke-width:0.264583;fill-opacity:1"
       id="rect2"
       width="211.72638"
       height="297.72882"
       x="-0.68206221"
       y="-0.40142921" /><path
       d="m 80.631711,192.5984 h -1.41172 c -4e-5,-5.32047 -1.27186,-7.98071 -3.81547,-7.98074 -0.45789,10.0973 -1.47534,17.55376 -3.05237,22.36937 -2.36562,7.37879 -6.35914,11.06819 -11.98057,11.06819 -2.97608,0 -5.57059,-1.04857 -7.78355,-3.1457 -2.49278,-2.36897 -3.980811,-5.67 -4.464098,-9.9031 -0.12719,-1.00972 -0.24165,-2.60199 -0.343391,-4.7768 -0.05088,-1.28156 -0.152625,-3.18451 -0.305238,-5.70885 -0.305243,-3.72821 -1.360855,-5.59232 -3.16684,-5.59234 -0.610477,2e-5 -1.157357,0.15537 -1.640648,0.46602 l -0.724942,-1.92237 c 1.729677,-1.0097 3.37033,-1.51456 4.921953,-1.51459 4.782044,3e-5 7.185784,4.93216 7.211234,14.79641 0.0254,8.97106 2.12393,13.45658 6.29552,13.45658 3.20497,0 5.57056,-2.75733 7.09677,-8.27201 1.11918,-4.03889 1.67878,-8.99045 1.67881,-14.85467 v -6.34964 h -1.03018 c -5.82497,3e-5 -10.79779,-3.22333 -14.91848,-9.6701 -4.018965,-6.33017 -6.02844,-13.78663 -6.028435,-22.36937 -5e-6,-5.43694 1.246381,-9.9613 3.73916,-13.57309 2.416445,-3.49514 5.341635,-5.24274 8.775575,-5.24283 5.54512,7e-5 9.72941,4.71863 12.55289,14.15563 2.16206,7.2235 3.24311,15.67027 3.24314,25.34031 v 3.1457 c 2.26381,0.89325 3.76456,3.0098 4.50225,6.34964 0.43239,1.98065 0.64859,5.22343 0.64863,9.72835 z m -11.48455,-15.84498 -0.26709,-14.03912 c -0.3307,-16.85464 -3.42122,-25.28198 -9.27158,-25.28206 -4.09528,7e-5 -6.33369,5.06814 -6.71522,15.20419 -0.0509,1.32047 -0.0763,2.56322 -0.0763,3.72823 -1e-5,13.7479 3.21769,20.62181 9.65313,20.62177 0.12716,4e-5 0.24162,4e-5 0.34339,0 z"
       style="font-style:normal;font-variant:normal;font-weight:normal;font-stretch:normal;font-size:1853.36px;line-height:125%;font-family:'Times New Roman';-inkscape-font-specification:'Times New Roman,';letter-spacing:0px;word-spacing:0px;display:inline;fill:#76a09f;fill-opacity:1;stroke:none;stroke-width:0.0520962"
       id="path3018-1-6" /><path
       id="path3018-18-3-9"
       style="font-style:normal;font-variant:normal;font-weight:normal;font-stretch:normal;font-size:1853.36px;line-height:125%;font-family:'Times New Roman';-inkscape-font-specification:'Times New Roman,';letter-spacing:0px;word-spacing:0px;fill:#191e1e;fill-opacity:1;stroke:none;stroke-width:0.0521179"
       d="M 44.555937 133.85901 L 44.955396 133.8678 L 45.202409 133.874 C 41.863316 133.94737 39.007951 135.68412 36.643241 139.10727 C 34.150462 142.72208 32.903931 147.24999 32.903935 152.69146 C 32.903931 161.28136 34.913541 168.7443 38.932507 175.07975 C 43.053198 181.53189 48.026012 184.75775 53.850977 184.75771 L 54.274723 184.75771 C 54.309088 184.75794 54.342619 184.76133 54.377043 184.76133 L 54.881405 184.76133 L 54.881405 191.11288 C 54.881379 196.17273 54.462659 200.54956 53.630835 204.25162 C 53.54764 203.18447 53.498952 202.04197 53.495443 200.80221 C 53.469994 190.92974 51.066557 185.99333 46.284513 185.9933 C 46.083176 185.9933 45.875967 186.02537 45.671631 186.04239 C 45.429078 186.01405 45.18318 185.99278 44.926973 185.99278 C 44.720958 185.99279 44.509292 186.02561 44.300138 186.04342 C 44.053457 186.01405 43.802877 185.99278 43.542045 185.99278 C 43.470712 185.99278 43.396714 186.00821 43.325004 186.01035 C 43.221031 186.00547 43.122304 185.98968 43.015979 185.98968 C 42.993385 185.98968 42.969889 185.99459 42.947249 185.99485 C 42.914236 185.99437 42.883857 185.98865 42.850614 185.98865 C 42.649358 185.98865 42.442501 186.02074 42.238249 186.03774 C 41.995696 186.0094 41.749797 185.98813 41.493591 185.98813 C 41.286815 185.98813 41.074111 186.02082 40.864172 186.03877 C 40.618123 186.00956 40.36827 185.98813 40.108146 185.98813 C 40.037836 185.98813 39.964881 186.00311 39.894206 186.00518 C 39.789387 186.00022 39.689807 185.98451 39.582597 185.98451 C 39.496525 185.98452 39.407217 186.00259 39.320597 186.0057 C 39.254717 186.00358 39.194231 185.9902 39.127327 185.9902 C 38.926584 185.9902 38.720236 186.02237 38.516512 186.03929 C 38.273485 186.01083 38.027042 185.98968 37.770304 185.98968 C 37.563029 185.98968 37.349788 186.02229 37.139335 186.04032 C 36.89377 186.01123 36.64444 185.9902 36.384859 185.9902 C 36.316588 185.9902 36.24587 186.00401 36.17712 186.00673 C 36.072808 186.00182 35.97374 185.98606 35.867061 185.98606 C 35.864685 185.98606 35.862203 185.98658 35.859827 185.98658 L 35.85931 185.98658 C 35.660598 185.98658 35.456334 186.01858 35.254696 186.03516 C 35.25436 186.03512 35.253997 186.0352 35.253662 186.03516 C 35.011426 186.00689 34.76589 185.98555 34.510038 185.98555 C 34.303354 185.98555 34.090979 186.01774 33.881136 186.03567 C 33.635097 186.00646 33.385222 185.98555 33.12511 185.98555 C 33.054662 185.98555 32.981468 186.00052 32.910653 186.0026 C 32.805834 185.99764 32.706254 185.98193 32.599044 185.98193 C 31.04742 185.98196 29.406541 186.48758 27.676864 187.49812 L 28.285612 189.11404 C 28.08034 189.18335 27.863484 189.28128 27.651025 189.421 C 27.650592 189.42128 27.650422 189.42175 27.649992 189.42203 L 28.926917 189.42203 L 28.92795 189.42513 C 28.929922 189.42386 28.932177 189.42329 28.934151 189.42203 L 30.311845 189.42203 L 30.312878 189.42513 C 30.314984 189.42378 30.317487 189.42338 30.319596 189.42203 L 30.658077 189.42203 C 30.658432 189.42199 30.666862 189.421 30.666862 189.421 C 30.666862 189.421 30.619051 189.379 30.532503 189.32074 C 30.662627 189.25417 30.790132 189.18116 30.927828 189.13316 C 32.196763 189.67566 32.957993 191.47995 33.209342 194.55247 C 33.361955 197.07891 33.463869 198.9837 33.51475 200.26633 C 33.616491 202.44296 33.730692 204.03636 33.857882 205.04692 C 34.341169 209.28355 35.82943 212.58751 38.322209 214.95846 C 40.535165 217.05733 43.129634 218.10658 46.105713 218.10658 C 46.185697 218.10658 46.262032 218.09826 46.341357 218.09677 C 46.438908 218.09906 46.533394 218.10968 46.631779 218.10968 C 46.875894 218.10968 47.112623 218.09364 47.350598 218.07971 C 47.57187 218.09178 47.791048 218.10968 48.016707 218.10968 C 48.248246 218.10968 48.472821 218.09379 48.698836 218.08126 C 48.920444 218.09337 49.13997 218.11123 49.365979 218.11123 C 49.445964 218.11123 49.522298 218.10291 49.601624 218.10142 C 49.699002 218.1037 49.793318 218.11433 49.891528 218.11434 C 50.135522 218.11433 50.372488 218.09828 50.610347 218.08436 C 50.831788 218.09645 51.051139 218.11433 51.276973 218.11434 C 51.512542 218.11433 51.741137 218.09837 51.970988 218.0854 C 52.191245 218.09735 52.409393 218.11485 52.633997 218.11485 C 52.736055 218.11485 52.833805 218.10498 52.934753 218.10245 C 52.986858 218.1031 53.036925 218.10917 53.089266 218.10917 C 53.167714 218.10917 53.242446 218.10079 53.32026 218.09935 C 53.41919 218.10171 53.515027 218.11278 53.614815 218.11278 C 53.858628 218.11278 54.095429 218.0967 54.333118 218.08281 C 54.554721 218.09492 54.774256 218.11278 55.00026 218.11278 C 55.237938 218.11278 55.468619 218.09653 55.700476 218.08333 C 55.918717 218.09506 56.134776 218.11278 56.357284 218.11278 C 56.380084 218.11278 56.401716 218.11032 56.424463 218.1102 C 56.457604 218.1105 56.489395 218.11433 56.522648 218.11434 C 56.602633 218.11433 56.678967 218.10601 56.758293 218.10452 C 56.855843 218.10681 56.950329 218.11744 57.048714 218.11744 C 57.291302 218.11744 57.526875 218.10122 57.763399 218.08746 C 57.986015 218.09968 58.206585 218.11743 58.433643 218.11744 C 58.669386 218.11744 58.898156 218.10149 59.128174 218.0885 C 59.348431 218.10045 59.566579 218.11795 59.791182 218.11795 C 65.412615 218.11794 69.406227 214.42553 71.771847 207.04059 C 72.897677 203.59989 73.730828 198.77613 74.284871 192.63475 L 75.260522 192.63475 L 75.37111 192.63475 L 75.37111 192.6363 L 75.897176 192.6363 L 75.897176 192.6394 L 77.308976 192.6394 L 78.639644 192.6394 L 78.639644 192.63992 L 80.050928 192.63992 C 80.05089 188.13125 79.83477 184.88586 79.402389 182.90356 C 78.664694 179.56094 77.164145 177.44241 74.900338 176.5484 L 74.900338 173.40027 C 74.900305 163.72216 73.819191 155.26804 71.657125 148.03851 C 68.83365 138.59364 64.649524 133.87148 59.104403 133.87142 C 59.088781 133.87142 59.073949 133.87423 59.058411 133.87452 L 59.058411 133.87297 L 57.761849 133.87193 C 57.756779 133.87192 57.751938 133.8709 57.746863 133.8709 C 57.742644 133.8709 57.738673 133.87191 57.73446 133.87193 L 55.884961 133.86986 C 55.868507 133.86931 55.852479 133.86728 55.835868 133.86728 C 55.821492 133.86728 55.807518 133.86867 55.793494 133.86986 L 55.736133 133.86986 C 55.714361 133.86833 55.692723 133.86625 55.670504 133.86625 C 55.6526 133.86625 55.635591 133.8695 55.617794 133.86986 L 54.363607 133.86831 C 54.346692 133.86813 54.330448 133.86573 54.313481 133.86573 C 54.299793 133.86573 54.286799 133.8681 54.273173 133.86831 L 52.943538 133.86728 C 52.938294 133.86726 52.933285 133.86625 52.928035 133.86625 C 52.923817 133.86625 52.919828 133.8672 52.915633 133.86728 L 52.4769 133.86676 C 52.452051 133.86558 52.427681 133.86263 52.402486 133.86263 C 52.382311 133.86263 52.362879 133.86502 52.343058 133.86625 L 45.418933 133.86005 L 44.555937 133.85901 z M 52.871191 146.49648 C 53.894993 150.55087 54.481375 155.94208 54.614237 162.71927 L 54.792521 172.09906 C 53.094144 168.66773 52.236601 163.43877 52.236605 156.37598 C 52.236595 155.21 52.261679 153.96601 52.312569 152.64443 C 52.399799 150.32509 52.589126 148.28396 52.871191 146.49648 z M 30.147514 188.9864 L 30.205391 189.14039 C 30.122289 189.10334 30.02969 189.06826 29.927889 189.03859 C 30.002081 189.02363 30.071154 188.99606 30.147514 188.9864 z " /><path
       d="m 2021.9058,634.43216 h -33.4835 c -9e-4,-82.65252 -30.1662,-123.97897 -90.496,-123.97947 -10.8603,156.86001 -34.9925,272.69473 -72.3967,347.5045 -56.1082,114.62825 -150.8272,171.94231 -284.1574,171.94231 -70.5872,0 -132.1244,-16.2893 -184.6117,-48.8678 -59.1242,-36.80163 -94.4176,-88.08262 -105.8803,-153.84314 -3.0167,-15.68577 -5.7315,-40.42131 -8.1446,-74.20669 -1.2068,-19.90883 -3.62,-49.47082 -7.2397,-88.68604 -7.2398,-57.91701 -32.277,-86.87569 -75.1117,-86.87612 -14.4794,4.3e-4 -27.4504,2.41365 -38.9132,7.23967 l -17.1943,-29.86366 c 41.0248,-15.6855 79.9381,-23.52848 116.7398,-23.52895 113.4214,4.7e-4 170.4338,76.62031 171.0374,229.85974 0.603,139.36389 50.3758,209.04571 149.3183,209.04567 76.0161,4e-5 132.1236,-42.83467 168.3225,-128.50427 26.5449,-62.74363 39.8176,-139.66512 39.8183,-230.7647 v -98.6406 h -24.434 c -138.1576,5e-4 -256.1039,-50.07388 -353.8392,-150.22329 -95.3226,-98.3382 -142.9837,-214.17291 -142.9836,-347.504493 -10e-5,-84.461827 29.5619,-154.746947 88.6861,-210.855597 57.3138,-54.29632 126.694,-81.44508 208.1407,-81.44636 131.5202,0.001 230.764,73.30294 297.7317,219.905184 51.2803,112.215951 76.9208,243.434956 76.9216,393.657436 v 48.86782 c 53.6934,13.87665 89.2884,46.75682 106.7852,98.6406 10.2553,30.76912 15.3834,81.14515 15.3843,151.12825 z M 1749.513,388.28315 1743.1782,170.18788 c -7.8436,-261.83389 -81.1452,-392.75125 -219.9051,-392.75248 -97.1327,0.001 -150.2236,78.73264 -159.2729,236.194467 -1.2069,20.513393 -1.8102,39.819179 -1.81,57.917416 -2e-4,213.571187 76.318,320.356317 228.9548,320.355697 3.0161,6.2e-4 5.7309,6.2e-4 8.1447,0 z"
       style="fill:#557c79;fill-opacity:1;font-style:normal;font-variant:normal;font-weight:normal;font-stretch:normal;font-size:1853.36px;line-height:125%;font-family:'Times New Roman';-inkscape-font-specification:'Times New Roman,';letter-spacing:0px;word-spacing:0px;stroke:none"
       id="path3018-1"
       transform="matrix(0.04216174,0,0,0.06442514,-19.633341,151.75437)" /><path
       style="fill:#557c79;fill-opacity:1;stroke:url(#linearGradient4);stroke-width:1.01787;stroke-dasharray:none;stroke-dashoffset:0;stroke-opacity:1;paint-order:stroke fill markers"
       d="M 80.630896,192.6394 64.200382,192.6253"
       id="path3" /><path
       style="fill:#000000;fill-opacity:1;stroke:none;stroke-width:1;stroke-dasharray:none;stroke-dashoffset:0;stroke-opacity:1;paint-order:stroke fill markers"
       d="m 43.615046,133.0902 0.309864,0.14032"
       id="path6" /><path
       style="fill:#191e1e;fill-opacity:1;stroke:none;stroke-width:1.018;stroke-dasharray:none;stroke-dashoffset:0;stroke-opacity:1;paint-order:stroke fill markers"
       d="m 31.872809,185.98093 14.868664,-0.0221 c 0,0 -0.302743,-0.002 -0.760596,0.0506 l -0.240621,0.12479 -3.076194,0.17378 h -7.538164 l -2.333529,-0.26691 c -0.405143,-0.0517 -0.91956,-0.0602 -0.91956,-0.0602 z"
       id="path9"
       sodipodi:nodetypes="ccccccccc" /></g></svg>
